<!-- Generated by IcoMoon.io -->
<svg version="1.1" xmlns="http://www.w3.org/2000/svg" width="16" height="17" viewBox="0 0 16 17">
<title>calendar</title>
<path fill="#fab909" d="M1.214 15.786h2.732v-2.732h-2.732v2.732zM4.554 15.786h3.036v-2.732h-3.036v2.732zM1.214 12.446h2.732v-3.036h-2.732v3.036zM4.554 12.446h3.036v-3.036h-3.036v3.036zM1.214 8.804h2.732v-2.732h-2.732v2.732zM8.196 15.786h3.036v-2.732h-3.036v2.732zM4.554 8.804h3.036v-2.732h-3.036v2.732zM11.839 15.786h2.732v-2.732h-2.732v2.732zM8.196 12.446h3.036v-3.036h-3.036v3.036zM4.857 4.25v-2.732c0-0.161-0.142-0.304-0.304-0.304h-0.607c-0.161 0-0.304 0.142-0.304 0.304v2.732c0 0.161 0.142 0.304 0.304 0.304h0.607c0.161 0 0.304-0.142 0.304-0.304zM11.839 12.446h2.732v-3.036h-2.732v3.036zM8.196 8.804h3.036v-2.732h-3.036v2.732zM11.839 8.804h2.732v-2.732h-2.732v2.732zM12.143 4.25v-2.732c0-0.161-0.142-0.304-0.304-0.304h-0.607c-0.161 0-0.304 0.142-0.304 0.304v2.732c0 0.161 0.142 0.304 0.304 0.304h0.607c0.161 0 0.304-0.142 0.304-0.304zM15.786 3.643v12.143c0 0.664-0.55 1.214-1.214 1.214h-13.357c-0.664 0-1.214-0.55-1.214-1.214v-12.143c0-0.664 0.55-1.214 1.214-1.214h1.214v-0.911c0-0.835 0.683-1.518 1.518-1.518h0.607c0.835 0 1.518 0.683 1.518 1.518v0.911h3.643v-0.911c0-0.835 0.683-1.518 1.518-1.518h0.607c0.835 0 1.518 0.683 1.518 1.518v0.911h1.214c0.664 0 1.214 0.55 1.214 1.214z"></path>
</svg>
