<!-- Generated by IcoMoon.io -->
<svg version="1.1" xmlns="http://www.w3.org/2000/svg" width="20" height="22" viewBox="0 0 20 22">
<title>chain-broken</title>
<path fill="#fff" d="M5.39 15.604l-3.143 3.143c-0.086 0.074-0.184 0.11-0.282 0.11s-0.196-0.037-0.282-0.11c-0.147-0.16-0.147-0.405 0-0.565l3.143-3.143c0.16-0.147 0.405-0.147 0.565 0 0.147 0.16 0.147 0.405 0 0.565zM7.464 16.107v3.929c0 0.221-0.172 0.393-0.393 0.393s-0.393-0.172-0.393-0.393v-3.929c0-0.221 0.172-0.393 0.393-0.393s0.393 0.172 0.393 0.393zM4.714 13.357c0 0.221-0.172 0.393-0.393 0.393h-3.929c-0.221 0-0.393-0.172-0.393-0.393s0.172-0.393 0.393-0.393h3.929c0.221 0 0.393 0.172 0.393 0.393zM20.232 14.929c0 0.945-0.368 1.829-1.044 2.492l-1.805 1.792c-0.663 0.663-1.547 1.019-2.492 1.019s-1.842-0.368-2.504-1.044l-4.1-4.113c-0.209-0.209-0.368-0.442-0.516-0.688l2.934-0.221 3.352 3.364c0.442 0.442 1.228 0.454 1.67 0.012l1.805-1.792c0.221-0.221 0.344-0.516 0.344-0.823 0-0.319-0.123-0.614-0.344-0.835l-3.364-3.376 0.221-2.934c0.246 0.147 0.479 0.307 0.688 0.516l4.125 4.125c0.663 0.675 1.031 1.559 1.031 2.504zM12.657 6.040l-2.934 0.221-3.352-3.364c-0.221-0.221-0.516-0.344-0.835-0.344s-0.614 0.123-0.835 0.331l-1.805 1.792c-0.221 0.221-0.344 0.516-0.344 0.823 0 0.319 0.123 0.614 0.344 0.835l3.364 3.364-0.221 2.946c-0.246-0.147-0.479-0.307-0.688-0.516l-4.125-4.125c-0.663-0.675-1.031-1.559-1.031-2.504s0.368-1.829 1.044-2.492l1.805-1.792c0.663-0.663 1.547-1.019 2.492-1.019s1.842 0.368 2.504 1.044l4.1 4.113c0.209 0.209 0.368 0.442 0.516 0.688zM20.429 7.071c0 0.221-0.172 0.393-0.393 0.393h-3.929c-0.221 0-0.393-0.172-0.393-0.393s0.172-0.393 0.393-0.393h3.929c0.221 0 0.393 0.172 0.393 0.393zM13.75 0.393v3.929c0 0.221-0.172 0.393-0.393 0.393s-0.393-0.172-0.393-0.393v-3.929c0-0.221 0.172-0.393 0.393-0.393s0.393 0.172 0.393 0.393zM18.747 2.247l-3.143 3.143c-0.086 0.074-0.184 0.11-0.282 0.11s-0.196-0.037-0.282-0.11c-0.147-0.16-0.147-0.405 0-0.565l3.143-3.143c0.16-0.147 0.405-0.147 0.565 0 0.147 0.16 0.147 0.405 0 0.565z"></path>
</svg>
