<!-- Generated by IcoMoon.io -->
<svg version="1.1" xmlns="http://www.w3.org/2000/svg" width="14" height="17" viewBox="0 0 14 17">
<title>pencil</title>
<path fill="#fab909" d="M3.444 14.571l0.863-0.863-2.229-2.229-0.863 0.863v1.015h1.214v1.214h1.015zM8.405 5.768c0-0.123-0.085-0.209-0.209-0.209-0.057 0-0.114 0.019-0.161 0.066l-5.142 5.142c-0.047 0.047-0.066 0.104-0.066 0.161 0 0.123 0.085 0.209 0.209 0.209 0.057 0 0.114-0.019 0.161-0.066l5.142-5.142c0.047-0.047 0.066-0.104 0.066-0.161zM7.893 3.946l3.946 3.946-7.893 7.893h-3.946v-3.946zM14.372 4.857c0 0.323-0.133 0.636-0.351 0.854l-1.575 1.575-3.946-3.946 1.575-1.565c0.218-0.228 0.531-0.36 0.854-0.36s0.636 0.133 0.863 0.36l2.229 2.22c0.218 0.228 0.351 0.541 0.351 0.863z"></path>
</svg>
